<?xml version="1.0"?>
<svg xmlns="http://www.w3.org/2000/svg" xmlns:xlink="http://www.w3.org/1999/xlink" xmlns:svgjs="http://svgjs.com/svgjs" version="1.1" width="512" height="512" x="0" y="0" viewBox="0 0 128 128" style="enable-background:new 0 0 512 512" xml:space="preserve" class=""><g><linearGradient xmlns="http://www.w3.org/2000/svg" id="a" gradientUnits="userSpaceOnUse" x1="115.244" x2="12.756" y1="114.951" y2="12.462"><stop stop-opacity="1" stop-color="#0067f4" offset="0.2471042471042471"/><stop stop-opacity="1" stop-color="#0067f4" offset="1"/></linearGradient><path xmlns="http://www.w3.org/2000/svg" d="m40.91 111a1.75 1.75 0 0 1 1.75-1.75h1.276a1.75 1.75 0 1 1 0 3.5h-1.276a1.75 1.75 0 0 1 -1.75-1.75zm73.09-95.75h-100a9.761 9.761 0 0 0 -9.75 9.75v77a10.762 10.762 0 0 0 10.75 10.75h19.933a1.75 1.75 0 0 0 0-3.5h-19.933a7.258 7.258 0 0 1 -7.25-7.25v-61.817h83.165a1.75 1.75 0 0 0 0-3.5h-38.027l5.512-11.647a1.75 1.75 0 1 0 -3.164-1.5l-6.22 13.147h-41.266v-11.683a6.257 6.257 0 0 1 6.25-6.25h100a6.257 6.257 0 0 1 6.25 6.25v11.683h-10.183a1.75 1.75 0 0 0 0 3.5h10.183v61.817a7.258 7.258 0 0 1 -7.25 7.25h-59.53a1.75 1.75 0 0 0 0 3.5h59.53a10.762 10.762 0 0 0 10.75-10.75v-77a9.761 9.761 0 0 0 -9.75-9.75zm-14.532 24.933h1.915a1.75 1.75 0 0 0 0-3.5h-1.915a1.75 1.75 0 0 0 0 3.5zm-77.898-14.717a2.253 2.253 0 0 1 2.25 2.25 1.75 1.75 0 0 0 3.5 0 5.75 5.75 0 1 0 -5.75 5.75 1.75 1.75 0 0 0 0-3.5 2.25 2.25 0 0 1 0-4.5zm16.056-3.5a5.75 5.75 0 1 1 -5.75 5.75 5.757 5.757 0 0 1 5.75-5.75zm0 3.5a2.25 2.25 0 1 0 2.25 2.25 2.253 2.253 0 0 0 -2.25-2.25zm76.391 2.25a1.751 1.751 0 0 0 -1.75-1.75h-44.745a1.75 1.75 0 0 0 0 3.5h44.745a1.75 1.75 0 0 0 1.75-1.75zm-62.084 70.75h-34a1.749 1.749 0 0 1 -1.75-1.75v-44a1.75 1.75 0 0 1 1.75-1.75h34a1.751 1.751 0 0 1 1.75 1.75v44a1.75 1.75 0 0 1 -1.75 1.75zm-1.75-44h-30.5v22.541l8.443-7.93a1.749 1.749 0 0 1 2.183-.172l16.691 11.354a1.75 1.75 0 0 1 -1.969 2.894l-15.531-10.565-9.817 9.22v13.158h30.5zm13.884-3.5h46a1.75 1.75 0 0 1 1.75 1.75v11a1.749 1.749 0 0 1 -1.75 1.75h-46a1.75 1.75 0 0 1 -1.75-1.75v-11a1.751 1.751 0 0 1 1.75-1.75zm1.75 11h42.5v-7.5h-42.5zm-1.75 14.5h46a1.75 1.75 0 0 0 0-3.5h-46a1.75 1.75 0 1 0 0 3.5zm46 7.5h-32.812a1.75 1.75 0 0 0 0 3.5h32.812a1.75 1.75 0 0 0 0-3.5zm-46 3.5h5.784a1.75 1.75 0 0 0 0-3.5h-5.784a1.75 1.75 0 1 0 0 3.5zm0 11h46a1.75 1.75 0 0 0 0-3.5h-46a1.75 1.75 0 1 0 0 3.5zm-22.84-29.1a5.762 5.762 0 1 0 0-11.524 1.75 1.75 0 0 0 0 3.5 2.262 2.262 0 1 1 -2.262 2.258 1.75 1.75 0 0 0 -3.5 0 5.769 5.769 0 0 0 5.762 5.763z" fill="url(#a)" data-original="url(#a)" style="" class=""/></g></svg>
